<svg xmlns="http://www.w3.org/2000/svg" width="1440" height="900" viewBox="0 0 1440 900" role="img" aria-labelledby="title desc">
  <title id="title">C-AICLI 1440×900 Chat-first 桌面布局</title>
  <desc id="desc">左侧会话导航、中央对话画布、右侧工作区检查器和底部 Composer 的尺寸规划。</desc>
  <defs>
    <filter id="shadow" x="-20%" y="-20%" width="140%" height="140%"><feDropShadow dx="0" dy="6" stdDeviation="12" flood-color="#203129" flood-opacity="0.12"/></filter>
    <marker id="arrow" viewBox="0 0 10 10" refX="9" refY="5" markerWidth="6" markerHeight="6" orient="auto-start-reverse"><path d="M 0 0 L 10 5 L 0 10 z" fill="#53645d"/></marker>
  </defs>
  <rect width="1440" height="900" fill="#eef2ef"/>
  <rect x="0" y="0" width="1440" height="56" fill="#ffffff" stroke="#d8dfdb"/>
  <rect x="18" y="13" width="30" height="30" rx="9" fill="#17755a"/>
  <text x="33" y="34" text-anchor="middle" fill="#ffffff" font-family="Segoe UI, Microsoft YaHei" font-size="13" font-weight="700">C</text>
  <text x="59" y="27" fill="#1f2b26" font-family="Segoe UI, Microsoft YaHei" font-size="13" font-weight="700">C-AICLI</text>
  <text x="59" y="40" fill="#728078" font-family="Segoe UI, Microsoft YaHei" font-size="10">Desktop workspace</text>
  <text x="720" y="34" text-anchor="middle" fill="#728078" font-family="Segoe UI, Microsoft YaHei" font-size="12">D:\AI\C-AICLI</text>
  <rect x="1320" y="15" width="102" height="26" rx="13" fill="#f1f4f2" stroke="#d8dfdb"/>
  <circle cx="1336" cy="28" r="4" fill="#1b8b66"/><text x="1348" y="32" fill="#53645d" font-family="Segoe UI, Microsoft YaHei" font-size="10">AppHost ready</text>

  <rect x="0" y="56" width="264" height="844" fill="#f7f9f7" stroke="#d8dfdb"/>
  <text x="18" y="88" fill="#6c7a73" font-family="Segoe UI, Microsoft YaHei" font-size="11" letter-spacing="1">CONVERSATIONS</text>
  <rect x="12" y="106" width="240" height="54" rx="10" fill="#e5f1eb"/>
  <circle cx="32" cy="133" r="8" fill="#17755a"/><text x="49" y="129" fill="#203029" font-family="Segoe UI, Microsoft YaHei" font-size="12" font-weight="600">连续对话与重试</text><text x="49" y="146" fill="#748079" font-family="Segoe UI, Microsoft YaHei" font-size="10">刚刚 · 已完成</text>
  <rect x="18" y="180" width="216" height="9" rx="4" fill="#e1e6e3"/><rect x="18" y="202" width="176" height="9" rx="4" fill="#e1e6e3"/><rect x="18" y="224" width="202" height="9" rx="4" fill="#e1e6e3"/>

  <rect x="264" y="56" width="816" height="844" fill="#f4f6f4"/>
  <rect x="264" y="56" width="816" height="54" fill="#ffffff" stroke="#d8dfdb"/>
  <text x="304" y="82" fill="#1f2b26" font-family="Segoe UI, Microsoft YaHei" font-size="15" font-weight="600">连续对话与连接重试</text>
  <text x="304" y="99" fill="#76827b" font-family="Segoe UI, Microsoft YaHei" font-size="10">Conversation</text>
  <rect x="984" y="71" width="72" height="26" rx="8" fill="#f1f4f2"/><text x="1020" y="88" text-anchor="middle" fill="#59675f" font-family="Segoe UI, Microsoft YaHei" font-size="10">Activity</text>

  <rect x="304" y="126" width="736" height="632" rx="4" fill="#ffffff" opacity="0.45"/>
  <rect x="644" y="153" width="360" height="62" rx="16" fill="#e2f1ea" stroke="#b9d9ca"/>
  <text x="980" y="174" text-anchor="end" fill="#607067" font-family="Segoe UI, Microsoft YaHei" font-size="10">你</text>
  <text x="980" y="195" text-anchor="end" fill="#22302a" font-family="Segoe UI, Microsoft YaHei" font-size="14">帮我整理这次修改并运行测试</text>

  <rect x="320" y="252" width="28" height="28" rx="9" fill="#17755a"/><text x="334" y="271" text-anchor="middle" fill="#ffffff" font-family="Segoe UI, Microsoft YaHei" font-size="11" font-weight="700">C</text>
  <text x="360" y="268" fill="#22302a" font-family="Segoe UI, Microsoft YaHei" font-size="12" font-weight="600">C-AICLI</text>
  <text x="360" y="305" fill="#22302a" font-family="Segoe UI, Microsoft YaHei" font-size="15">已完成代码检查，相关测试全部通过。</text>
  <text x="360" y="333" fill="#22302a" font-family="Segoe UI, Microsoft YaHei" font-size="15">修改保持在同一个 Turn，并保留完整审计记录。</text>
  <rect x="360" y="359" width="330" height="36" rx="9" fill="#f1f4f2"/>
  <circle cx="378" cy="377" r="7" fill="#d9ebe2"/><path d="M374 377l3 3 5-6" fill="none" stroke="#17755a" stroke-width="2"/><text x="394" y="381" fill="#53645d" font-family="Segoe UI, Microsoft YaHei" font-size="11">已完成 3 项操作</text><text x="674" y="381" text-anchor="end" fill="#17755a" font-family="Segoe UI, Microsoft YaHei" font-size="10">展开 ›</text>
  <text x="360" y="419" fill="#7b8780" font-family="Segoe UI, Microsoft YaHei" font-size="11">已处理 8.4 秒</text>

  <rect x="304" y="782" width="736" height="96" rx="16" fill="#ffffff" stroke="#cdd7d1" filter="url(#shadow)"/>
  <text x="326" y="812" fill="#87918b" font-family="Segoe UI, Microsoft YaHei" font-size="13">输入消息…</text>
  <rect x="322" y="838" width="32" height="28" rx="8" fill="#f0f4f2"/><text x="338" y="856" text-anchor="middle" fill="#526159" font-family="Segoe UI, Microsoft YaHei" font-size="16">＋</text>
  <text x="368" y="856" fill="#7b8780" font-family="Segoe UI, Microsoft YaHei" font-size="10">gpt-5 · On request</text>
  <rect x="990" y="832" width="36" height="36" rx="11" fill="#17755a"/><path d="M1001 851h13m0 0-5-5m5 5-5 5" stroke="#fff" stroke-width="2" fill="none" stroke-linecap="round" stroke-linejoin="round"/>

  <rect x="1080" y="56" width="360" height="844" fill="#ffffff" stroke="#d8dfdb"/>
  <text x="1100" y="88" fill="#64726a" font-family="Segoe UI, Microsoft YaHei" font-size="11" letter-spacing="1">WORKSPACE</text>
  <rect x="1092" y="106" width="336" height="34" rx="9" fill="#f1f4f2"/><text x="1110" y="128" fill="#22302a" font-family="Segoe UI, Microsoft YaHei" font-size="11">Changes</text><text x="1175" y="128" fill="#7c8781" font-family="Segoe UI, Microsoft YaHei" font-size="11">Reports</text><text x="1234" y="128" fill="#7c8781" font-family="Segoe UI, Microsoft YaHei" font-size="11">Terminal</text>
  <rect x="1100" y="164" width="292" height="10" rx="5" fill="#e1e6e3"/><rect x="1100" y="190" width="240" height="10" rx="5" fill="#e1e6e3"/><rect x="1100" y="216" width="274" height="10" rx="5" fill="#e1e6e3"/>

  <line x1="0" y1="874" x2="264" y2="874" stroke="#53645d" marker-start="url(#arrow)" marker-end="url(#arrow)"/><text x="132" y="892" text-anchor="middle" fill="#53645d" font-family="Segoe UI, Microsoft YaHei" font-size="10">左导航 264px</text>
  <line x1="1080" y1="874" x2="1440" y2="874" stroke="#53645d" marker-start="url(#arrow)" marker-end="url(#arrow)"/><text x="1260" y="892" text-anchor="middle" fill="#53645d" font-family="Segoe UI, Microsoft YaHei" font-size="10">Inspector 360px</text>
  <line x1="304" y1="768" x2="1040" y2="768" stroke="#53645d" marker-start="url(#arrow)" marker-end="url(#arrow)"/><text x="672" y="762" text-anchor="middle" fill="#53645d" font-family="Segoe UI, Microsoft YaHei" font-size="10">Conversation / Composer 736px（目标最大 760px）</text>
</svg>
